<?xml version="1.0" encoding="utf-8"?>
<!-- Generator: Adobe Adobe Illustrator 24.2.0, SVG Export Plug-In . SVG Version: 6.00 Build 0)  -->
<svg version="1.1" id="Layer_1" xmlns="http://www.w3.org/2000/svg" xmlns:xlink="http://www.w3.org/1999/xlink" x="0px" y="0px"
	 width="100px" height="100px" viewBox="0 0 50 50" style="enable-background:new 0 0 50 50;" xml:space="preserve">
   <rect height="100%" width="100%" fill="#FFFDE7" />
   <path fill="#FFE0B2"  transform="translate(-2, 0)" d="M44,13.77c-0.03-0.04-0.08-0.08-0.11-0.12c-0.2-0.35-0.4-0.69-0.63-1.02c-0.15-0.14-0.27-0.26-0.38-0.37
	c0,0,0-0.01-0.01-0.01c0.08,0.08,0.17,0.17,0.29,0.28c-0.4-0.54-0.46-0.58-0.37-0.4c-1.02-1.58-2.78-2.52-4.47-3.33
	c-0.6-0.34-1.18-0.71-1.75-1.1c-0.17-0.18-0.37-0.4-0.44-0.5c-0.18-0.21-0.33-0.44-0.48-0.68c-0.03-0.05-0.06-0.09-0.08-0.14
	c-0.07-0.11-0.13-0.22-0.2-0.33c-0.05-0.1-0.04-0.06,0.01,0.03c-0.61-0.94-1.55-1.94-2.44-2.43c-1.15-0.66-2.45-0.91-3.75-1.06
	c-3.83-0.5-7.66,0.39-11.01,2.28c-0.11,0.05-0.43,0.21-0.65,0.32c-0.37-0.71-0.93-1.33-1.79-1.33c-1.78-0.09-3.29,1.26-4.49,2.43
	c-0.82,0.73-1.47,1.82-1.33,2.87C9.72,9.01,9.5,8.85,9.23,8.7c0.32,0.56,0.8,1.1,0.89,1.76c0.13,0.69-0.27,1.33-0.56,1.93
	c-0.3,0.67-0.48,0.88-0.8,1.47c-0.15,0.27,0.04-0.06,0.06-0.09c-1.37,2.97-6.31,7.73-7.04,13.98c-0.5,5.39,1.98,11.69,7.24,13.86
	c3.34,1.31,6.77-0.42,9.51-2.32c0.21-0.13,0.42-0.27,0.64-0.41c0.11,0.82,0.3,1.63,0.64,2.39c3.5,7.51,10.75,5.6,15.54,0.46
	c3.63-3.7,5.95-8.56,7.07-13.63C46.44,24.63,47.54,17.97,44,13.77z M29.74,25.71c-0.07,0.07-0.15,0.14-0.22,0.22
	c-0.12-0.22-0.23-0.44-0.37-0.65c-1.73-2.92-5.26-3.49-8.19-2.11c-0.1,0.03-0.19,0.06-0.31,0.09c-2.7,1.07-5,3.03-7.18,4.91
	c-0.37,0.32-0.74,0.64-1.13,0.94c-0.09,0.04-0.19,0.08-0.28,0.12c-0.29,0.07-0.57,0.15-0.86,0.23c-0.01,0-0.01,0-0.02,0
	c0.29-0.08,0.45-0.13-0.13-0.03c-0.02,0-0.02,0-0.04,0c-0.12-0.02-0.23-0.07-0.35-0.11c-0.06-0.03-0.12-0.05-0.17-0.09
	c-1.48-0.94-1.04-0.65-2.18-2.35c-0.11-0.24-0.2-0.49-0.26-0.6C8.03,26,7.98,25.7,7.94,25.41c-0.01-0.09-0.02-0.18-0.03-0.27
	c0-0.18,0.01-0.54,0.04-0.82c0.04-0.25,0.1-0.55,0.15-0.85c0.68-3.07,1.75-5.31,2.5-9.59c0.19-0.99,0.46-2.04,0.29-3.01
	c0.07,0.08,0.15,0.16,0.22,0.25c-0.1-0.36-0.24-0.71-0.34-1.07c-0.63-1.59,0.95-2.14,2.15-2.6c0.42-0.21,1.46-0.18,1.6-0.13
	c0,0,0.01,0.01,0.01,0.01c0.07,1.68,0.88,3.43,2.84,3.26c1.24-0.06,2.44-0.45,3.69-0.34c2.04-0.06,3.98,0.5,6.41,1.36
	c0.13,0.18,0.25,0.37,0.36,0.54c0.06,0.15,0.11,0.31,0.15,0.47c0.07,0.26,0.15,0.56,0.21,0.76c0.42,1.21,1.08,2.33,1.78,3.39
	c0.91,1.27,1.99,2.4,3.11,3.48c-0.55,0.84-1.02,1.76-1.38,2.74c-0.07,0.16-0.15,0.32-0.23,0.48C30.94,24.23,30.33,24.97,29.74,25.71
	z"/>
<path fill="#FFE0B2" transform="translate(12, -25) rotate(10)" d="M27.09,16.72c-2.16-0.33-4.24,1.49-4.23,3.67c1.24-3.49,4.98-1.31,5.97,1.17c0.79,1.38,0.65,3.08,0.4,3.54
	c-0.63,1.31-1.73,2.52-3.38,3.25c-1.33,0.52-2.83,0.6-4.24,0.42c-0.8-0.12-1.66-0.25-2.22-0.89c-0.12-0.11-0.22-0.24-0.31-0.37
	c0.05,0.48,0.22,0.94,0.45,1.35c1.5,2.02,4.32,2.92,6.78,2.69c2.32-0.38,4.41-1.96,5.53-4.01C34.18,23.58,31.88,17.34,27.09,16.72z"
	/>
</svg>
