<?xml version="1.0" encoding="utf-8"?>
<!-- Generator: Adobe Adobe Illustrator 24.2.0, SVG Export Plug-In . SVG Version: 6.00 Build 0)  -->
<svg version="1.1" xmlns="http://www.w3.org/2000/svg" xmlns:xlink="http://www.w3.org/1999/xlink" x="0px" y="0px" width="50px"
	 height="50px" viewBox="0 0 50 50" style="enable-background:new 0 0 50 50;" xml:space="preserve">
<style type="text/css">
	.st0{fill:#283593;}
	.st1{fill:#311B92;}
</style>
<rect height="100%" width="100%" fill="#1A237E" />
<g id="Layer_1">
	<g id="Layer_3">
		<path class="st0" d="M34.52,31.65c-1.32-0.73-2.85-1.13-4.36-1.04c-0.93,0.16-1.65,0.08-0.27,0.43c2.52,0.86,4.41,4,4.53,5.92
			c0,0.58-0.04,0.58-0.25,1.34c-0.02,0.05-0.03,0.08-0.04,0.1c-0.23,0.45-0.31,0.6-0.36,0.66c-0.01,0.01-0.02,0.02-0.03,0.03
			c0.42-0.74,0.07-0.17-0.03,0.03c-0.1,0.1-0.17,0.18-0.24,0.24c-0.04,0.03-0.07,0.05-0.13,0.09c-0.22,0.23-1.32,0.8-1.6,0.96
			c-3.42,1.19-5.88,1.35-7.75-0.04c-1.54-1.22-2.36-2.86-2.43-4.76c-0.11-1.58,0.06-3.41,1.45-4.41c-3.03,0.91-3.83,4.73-4.01,7.51
			c0.38,8.22,9.25,11.34,15.82,7.46C40.82,42.62,40.67,34.94,34.52,31.65z"/>
	</g>
	<g>
		<path class="st1" d="M28.3,8.32c-7.58-1.98-16.46,3.8-21.75,9.55c3.75-2.13,7.75-3.16,12.18-4.15c1.87-0.43,3.4-0.16,4.37-0.08
			c1.79,0.35,1.34,0.37,2.19,0.65c-1.04-0.43-0.02-0.02,0.45,0.19c-1.03-0.41-0.51-0.23,0.03,0.08c-0.51,0.31-1.11,0.67-1.44,0.82
			c-2.41,1.25-4.69,1.61-9.34,3.59c-0.72,0.32-1.42,0.66-2.1,1.09c-6.44,3.72-9.17,12.52-3.24,18c3.79,3.65,9.47,5.07,14.24,2.47
			c3.72-1.91,9.43-6.85,6.56-11.39c-1.4-1.76-3.54-2.66-5.76-2.87c3.85-2.15,8.18-4.5,9.6-8.89C35.15,14.37,33.37,9.95,28.3,8.32z
			 M23.75,32.11c-0.37,0.16-1.59,0.67-0.69,0.29c0.85-0.37-0.17,0.07-0.54,0.19c-2.31,0.7-1.46,0.58-3.25,0.57
			c-0.57-0.33-0.33,0.1-1.87-1.25c-0.05-0.05-0.09-0.1-0.14-0.15c-0.23-2.31,3.56-2.42,5.23-2.26c0.11,0.02,0.01,0-0.11-0.02
			c1.44,0.18,2.93,0.58,3.79,1.28C25.58,31.16,24.6,31.72,23.75,32.11z"/>
		<path class="st1" d="M14.84,19.03c0.05-0.02,0.1-0.04,0.15-0.06c0.02-0.01,0.04-0.02,0.05-0.02
			C14.64,19.11,14.57,19.14,14.84,19.03z"/>
		<path class="st1" d="M15.04,18.94c0.22-0.1,0.55-0.23,0.99-0.42C15.7,18.66,15.37,18.8,15.04,18.94z"/>
	</g>
	<path class="st1" d="M39.18,20.8c2,0.49,2.25,1.72,1.53,3.49c-0.38,1.12-1.42,1.92-2.46,2.09c-0.56,0.04-1.3,0.02-1.77-0.37
		c-0.78-1.27,0.14-2.91,0.89-3.99c-1.72,1.03-3.3,3.62-1.77,5.41c1.82,1.81,5.07,0.95,6.12-1.29C42.9,23.84,42.55,20.23,39.18,20.8z
		"/>
</g>
<g id="Layer_2">
	<path class="st0" d="M35.67,2.03c-11.7,3.02-21.48,11.26-27.4,21.69C6.23,27.5,3.42,31.32,3.2,35.74c0.91-2.39,2.91-4.14,4.58-6.01
		c2.5-2.56,5.01-5.12,7.54-7.65c5.61-5.45,12.68-12.75,17.9-16.91c1.45-1.1,2.62-2.1,3.92-3.04C39.01,0.93,36.61,1.9,35.67,2.03z"/>
</g>
</svg>
